<svg xmlns="http://www.w3.org/2000/svg" xmlns:xlink="http://www.w3.org/1999/xlink" width="1000" zoomAndPan="magnify" viewBox="0 0 750 749.999995" height="1000" preserveAspectRatio="xMidYMid meet" version="1.0"><defs><clipPath id="0bba952ddc"><path d="M 11.503906 11.503906 L 738.253906 11.503906 L 738.253906 738.253906 L 11.503906 738.253906 Z M 11.503906 11.503906 " clip-rule="nonzero"/></clipPath></defs><g clip-path="url(#0bba952ddc)"><path fill="#f9f9f9" d="M 375.09375 194.070312 C 275.214844 194.070312 194.265625 275.214844 194.265625 375.09375 C 194.265625 474.78125 275.214844 555.921875 375.09375 555.921875 C 420.300781 555.921875 463.191406 538.921875 496.03125 509.363281 C 542.785156 459.324219 616.003906 529.648438 565.003906 577.367188 C 514.386719 624.699219 446.960938 652.519531 375.09375 652.519531 L 375.09375 724.191406 L 375.09375 652.519531 C 351.332031 652.519531 332.011719 671.835938 332.011719 695.601562 C 332.011719 719.171875 351.332031 738.488281 375.09375 738.488281 C 575.628906 738.488281 738.488281 575.628906 738.488281 375.09375 C 738.488281 174.367188 575.628906 11.503906 375.09375 11.503906 C 174.367188 11.503906 11.503906 174.367188 11.503906 374.902344 L 11.503906 375.09375 C 11.503906 398.664062 30.824219 417.984375 54.394531 417.984375 C 78.15625 417.984375 97.476562 398.664062 97.476562 375.09375 C 97.476562 221.699219 221.699219 97.476562 375.09375 97.476562 C 526.75 97.476562 650.199219 219.378906 652.519531 370.648438 C 652.90625 402.527344 642.085938 423.390625 602.867188 423.390625 L 339.933594 423.390625 C 313.273438 423.390625 291.632812 401.5625 291.632812 375.09375 C 291.632812 348.433594 313.273438 326.601562 339.933594 326.601562 L 549.355469 326.601562 C 527.910156 249.132812 456.8125 194.070312 375.09375 194.070312 Z M 375.09375 194.070312 " fill-opacity="1" fill-rule="evenodd"/></g></svg>